<?xml version="1.0" encoding="utf-8"?>
<!-- Generator: Adobe Illustrator 28.2.0, SVG Export Plug-In . SVG Version: 6.00 Build 0)  -->
<svg version="1.1" id="Layer_1" xmlns="http://www.w3.org/2000/svg" xmlns:xlink="http://www.w3.org/1999/xlink" x="0px" y="0px"
	 viewBox="0 0 513 70" style="enable-background:new 0 0 513 70;" xml:space="preserve">
<style type="text/css">
	.st0{fill:#0606C4;}
	.st1{fill:#8800FF;}
	.st2{fill:#6D29FF;}
	.st3{fill:#5253FF;}
	.st4{fill:#367CFF;}
	.st5{fill:#1BA6FF;}
	.st6{fill:#00CFFF;}
</style>
<g>
	<path class="st0" d="M86.7,8.9h16.8c11.8,0,17.4,6.3,17.4,14.8c0,8.1-5.3,14.8-17.4,14.8H93.2v20.8h-6.5V8.9z M103.4,33.1
		c7.8,0,10.9-3.6,10.9-9.4c0-6-3.1-9.4-10.9-9.4H93.2v18.8H103.4z"/>
	<path class="st0" d="M128.4,23.6h6.5v5.5c1.6-3.6,4.4-5.8,8.4-5.8h5.3v6h-6c-4.7,0-7.8,3.7-7.8,13v17h-6.5V23.6z"/>
	<path class="st0" d="M152.4,41.5c0-11.3,7.9-18.7,18-18.7c10.1,0,17.9,7.4,17.9,18.7s-7.8,18.7-18,18.7
		C160.1,60.2,152.4,52.8,152.4,41.5z M181.6,41.5c0-8.7-5.3-13.2-11.2-13.2c-6,0-11.4,4.5-11.4,13.2s5.3,13.2,11.2,13.2
		C176.2,54.6,181.6,50.2,181.6,41.5z"/>
	<path class="st0" d="M193.3,41.5c0-11.2,7.7-18.7,18-18.7c8.6,0,14.8,4.8,16.4,12.3H221c-1-4.2-4.9-6.8-9.7-6.8
		c-6,0-11.4,4.5-11.4,13.2s5.4,13.2,11.4,13.2c4.8,0,8.7-2.4,9.7-6.8h6.7c-1.5,7.3-7.8,12.3-16.4,12.3
		C201,60.2,193.3,52.7,193.3,41.5z"/>
	<path class="st0" d="M232.3,41.5c0-11.3,7.3-18.8,17.9-18.8c10.4,0,16.8,7.8,16.8,16.8c0,1,0,2-0.1,3.3h-28.2
		c0.4,7.8,5.6,11.9,11.3,11.9c4.8,0,8.1-2.4,9.6-6.2h6.4c-1.9,6.6-7.6,11.6-16,11.6C239.6,60.2,232.3,52.8,232.3,41.5z M238.8,38.2
		h21.8c-0.3-6.2-4.7-10-10.6-10C244.4,28.1,239.5,31.6,238.8,38.2z"/>
	<path class="st0" d="M272.6,48.2h6.7c0.7,4.2,4.3,6.7,9.6,6.7c5,0,7.8-2.4,7.8-5.6c0-3.3-3.1-3.8-5.9-4.3c-1.8-0.4-4-0.8-5.8-1.1
		c-5-1-10.4-3.7-10.4-10.3c0-6.1,5-10.8,13.2-10.8c7.8,0,13.5,3.5,14.2,11.1h-6.4c-0.4-4.1-3.6-5.8-7.8-5.8c-4.2,0-7.1,2-7.1,5
		c0,2.7,2,4.3,5.8,5c1.7,0.3,4,0.6,5.6,0.9c4.5,0.8,10.9,2.4,10.9,9.7c0,6.6-5.5,11.4-14.2,11.4S273.5,56.1,272.6,48.2z"/>
	<path class="st0" d="M308.2,48.2h6.7c0.7,4.2,4.3,6.7,9.6,6.7c5,0,7.8-2.4,7.8-5.6c0-3.3-3.1-3.8-5.9-4.3c-1.8-0.4-4-0.8-5.8-1.1
		c-5-1-10.4-3.7-10.4-10.3c0-6.1,5-10.8,13.2-10.8c7.8,0,13.5,3.5,14.2,11.1h-6.4c-0.4-4.1-3.6-5.8-7.8-5.8c-4.2,0-7.1,2-7.1,5
		c0,2.7,2,4.3,5.8,5c1.7,0.3,4,0.6,5.6,0.9c4.5,0.8,10.9,2.4,10.9,9.7c0,6.6-5.5,11.4-14.2,11.4S309.2,56.1,308.2,48.2z"/>
	<path class="st0" d="M344.7,8.9h6.9l10.7,42.8l12.2-42.8h7.2l11.8,42.8l10.7-42.8h7l-14,50.4h-7.5l-11.7-41l-12,41h-7.3L344.7,8.9z
		"/>
	<path class="st0" d="M418,8.8h7.8v7.9H418V8.8z M418.6,23.6h6.5v35.7h-6.5V23.6z"/>
	<path class="st0" d="M432,48.2h6.7c0.7,4.2,4.3,6.7,9.6,6.7c5,0,7.8-2.4,7.8-5.6c0-3.3-3.1-3.8-5.9-4.3c-1.8-0.4-4-0.8-5.8-1.1
		c-5-1-10.4-3.7-10.4-10.3c0-6.1,5-10.8,13.2-10.8c7.8,0,13.5,3.5,14.2,11.1h-6.4c-0.4-4.1-3.6-5.8-7.8-5.8c-4.2,0-7.1,2-7.1,5
		c0,2.7,2,4.3,5.8,5c1.7,0.3,4,0.6,5.6,0.9c4.5,0.8,10.9,2.4,10.9,9.7c0,6.6-5.5,11.4-14.2,11.4S432.9,56.1,432,48.2z"/>
	<path class="st0" d="M467.9,41.5c0-11.3,7.3-18.8,17.9-18.8c10.4,0,16.8,7.8,16.8,16.8c0,1,0,2-0.1,3.3h-28.2
		c0.4,7.8,5.6,11.9,11.3,11.9c4.8,0,8.1-2.4,9.6-6.2h6.4c-1.9,6.6-7.6,11.6-16,11.6C475.3,60.2,467.9,52.8,467.9,41.5z M474.4,38.2
		h21.8c-0.3-6.2-4.7-10-10.6-10C480,28.1,475.1,31.6,474.4,38.2z"/>
</g>
<g>
	<path class="st1" d="M45.4,60.4C45.4,60.4,45.4,60.4,45.4,60.4l-32.9,0c-1.9,0-3.4-1.5-3.4-3.4c0-1.9,1.5-3.4,3.4-3.4c0,0,0,0,0,0
		l32.9,0c1.9,0,3.4,1.5,3.4,3.4C48.8,58.8,47.3,60.4,45.4,60.4z"/>
</g>
<g>
	<path class="st2" d="M48,60.4c-0.4,0-0.7-0.1-1.1-0.2L20.6,51c-1.7-0.6-2.6-2.5-2-4.2c0.6-1.7,2.5-2.6,4.2-2L49.1,54
		c1.7,0.6,2.6,2.5,2,4.2C50.7,59.5,49.4,60.4,48,60.4z"/>
</g>
<g>
	<path class="st3" d="M50.7,60.4c-0.8,0-1.6-0.3-2.2-0.9L28.7,41.1c-1.3-1.2-1.3-3.2-0.2-4.5c1.2-1.3,3.2-1.3,4.5-0.2l19.8,18.5
		c1.3,1.2,1.3,3.2,0.2,4.5C52.4,60.1,51.5,60.4,50.7,60.4z"/>
</g>
<g>
	<path class="st4" d="M53.3,60.4c-1.1,0-2.2-0.6-2.7-1.7L37.4,31c-0.7-1.5-0.1-3.3,1.4-4.1s3.3-0.1,4.1,1.4l13.2,27.7
		c0.7,1.5,0.1,3.3-1.4,4.1C54.2,60.3,53.8,60.4,53.3,60.4z"/>
</g>
<g>
	<path class="st5" d="M56,60.5c-1.4,0-2.6-1-2.9-2.4l-6.7-36.9c-0.3-1.6,0.8-3.1,2.3-3.4c1.6-0.3,3.1,0.8,3.4,2.3L58.9,57
		c0.3,1.6-0.8,3.1-2.3,3.4C56.3,60.4,56.2,60.5,56,60.5z"/>
</g>
<g>
	<path class="st6" d="M58.7,60.5c-1.5,0-2.8-1.2-2.8-2.8l-0.1-46.1c0-1.5,1.2-2.8,2.8-2.8c0,0,0,0,0,0c1.5,0,2.8,1.2,2.8,2.8
		l0.1,46.1C61.4,59.2,60.2,60.5,58.7,60.5C58.7,60.5,58.7,60.5,58.7,60.5z"/>
</g>
</svg>
